<svg xmlns="http://www.w3.org/2000/svg" version="1.1" xmlns:xlink="http://www.w3.org/1999/xlink" xmlns:svgjs="http://svgjs.com/svgjs" width="1440" height="560" preserveAspectRatio="none" viewBox="0 0 1440 560"><g mask="url(&quot;#SvgjsMask1098&quot;)" fill="none"><rect width="1440" height="560" x="0" y="0" fill="rgba(127, 172, 217, 1)"></rect><path d="M0,526.299C111.44,521.143,234.325,570.949,327.472,509.556C420.533,448.22,420.101,314.211,471.685,215.411C527.035,109.397,636.369,27.215,641.681,-92.26C647.265,-217.843,577.257,-334.139,500.547,-433.727C420.646,-537.459,322.747,-634.45,196.712,-669.94C71.24,-705.272,-58.12,-660.513,-183.949,-626.473C-312.4,-591.724,-460.311,-574.723,-542.4,-469.992C-623.86,-366.063,-603.677,-219.235,-606.619,-87.219C-609.239,30.354,-603.407,146.371,-558.558,255.085C-512.474,366.794,-456.247,488.005,-347.543,540.788C-241.084,592.48,-118.219,531.769,0,526.299" fill="#3f83c6"></path><path d="M1440 989.914C1520.001 991.4580000000001 1582.327 928.066 1654.943 894.4580000000001 1741.415 854.437 1874.232 862.7919999999999 1907.548 773.5219999999999 1941.629 682.203 1818.328 603.921 1799.032 508.379 1781.4270000000001 421.212 1854.937 317.872 1801.211 247.00900000000001 1748.075 176.92399999999998 1635.443 206.55599999999998 1551.155 181.43900000000002 1466.41 156.18599999999998 1392.039 85.52199999999999 1304.65 99.041 1214.703 112.95499999999998 1147.939 186.558 1086.136 253.375 1022.6469999999999 322.01599999999996 946.821 395.252 944.2180000000001 488.717 941.648 581.012 1018.995 652.6949999999999 1072.929 727.636 1117.339 789.344 1168.466 842.0609999999999 1230.325 886.26 1295.0720000000001 932.523 1360.438 988.3779999999999 1440 989.914" fill="#bfd5ec"></path></g><defs><mask id="SvgjsMask1098"><rect width="1440" height="560" fill="#ffffff"></rect></mask></defs></svg>